# xmcd CD database file
#
# Track frame offsets:
#	150
#	24725
#	44650
#	65280
#	89855
#	109705
#	141512
#
# Disc length: 4440 seconds
#
# Revision: 0
# Processed by: cddbd v1.5.1PL2 Copyright (c) Steve Scherf et al.
# Submitted via: CDex 1.51
#
DISCID=69115607
DTITLE=DA PUMP  - Bright！ our Future
DYEAR=2005
DGENRE=J-Pop
TTITLE0=Bright！ our Future
TTITLE1=Just now Funk da Music
TTITLE2=Serious
TTITLE3=Bright！ our Future -Back Track-
TTITLE4=Just now Funk da Music -Back Track-
TTITLE5=Serious -Back Track-
TTITLE6=CCCD
EXTD=YEAR: 2005
EXTT0=
EXTT1=
EXTT2=
EXTT3=
EXTT4=
EXTT5=
EXTT6=
PLAYORDER=
